# xmcd CD database file
# Copyright (C) 1993-1998 Ti Kan
#
# Track frame offsets:
#	182
#	14620
#	30342
#	43880
#	59752
#	71985
#	84345
#	101277
#	111075
#	127560
#	140030
#	153940
#
# Disc length: 2249 seconds
#
# Revision: 1
# Processed by: cddbd v1.4b41PL1 Copyright (c) Steve Scherf et al.
# Submitted via: NotifyCDPlayer(CDDB) 1.51.3
#
DISCID=9d08c70c
DTITLE=Rolf Raggenbass - A Pillow Of My Own
DYEAR=1900
DGENRE=
TTITLE0=A Pillow Of My Own
TTITLE1=Wanda Glen
TTITLE2=What Texans Do
TTITLE3=Ontario's Snow
TTITLE4=Killin' Time
TTITLE5=Cold Cruel Heart
TTITLE6=Sjpeakin' Of The Devil Again
TTITLE7=Hello Trouble
TTITLE8=Goodbye Mexico
TTITLE9=Heartache Bound
TTITLE10=Precious Tools
TTITLE11=Roll On
EXTD=
EXTT0=
EXTT1=
EXTT2=
EXTT3=
EXTT4=
EXTT5=
EXTT6=
EXTT7=
EXTT8=
EXTT9=
EXTT10=
EXTT11=
PLAYORDER=
